# Blender v2.79 (sub 0) OBJ File: 'spiceTree.blend'
# www.blender.org
o Cylinder_Cylinder.001
v 0.000000 1.106638 -1.087542
v -0.000000 8.603019 -0.087190
v 0.707107 0.904192 -0.707107
v 0.061653 8.603019 -0.061653
v 1.087542 1.106638 0.000000
v 0.087190 8.603019 0.000000
v 0.707107 0.904192 0.707107
v 0.061653 8.603019 0.061653
v -0.000000 1.106638 1.087542
v -0.000000 8.603019 0.087190
v -0.707107 0.904192 0.707107
v -0.061653 8.603019 0.061653
v -1.087542 1.106638 -0.000000
v -0.087190 8.603019 -0.000000
v -0.707107 0.904192 -0.707107
v -0.061653 8.603019 -0.061653
v 0.000000 2.359800 -0.938271
v -0.000000 3.612963 -0.789000
v -0.000000 4.866125 -0.639730
v -0.000000 6.119287 -0.490459
v -0.000000 7.372450 -0.341188
v 0.221836 7.625640 -0.221836
v 0.318890 6.281351 -0.318890
v 0.415945 4.937061 -0.415945
v 0.512999 3.592771 -0.512999
v 0.610053 2.248482 -0.610053
v 0.341188 7.372449 0.000000
v 0.490459 6.119287 0.000000
v 0.639730 4.866125 0.000000
v 0.789000 3.612962 0.000000
v 0.938271 2.359800 0.000000
v 0.221836 7.625640 0.221836
v 0.318890 6.281351 0.318890
v 0.415945 4.937061 0.415945
v 0.512999 3.592771 0.512999
v 0.610053 2.248482 0.610053
v -0.000000 7.372449 0.341188
v -0.000000 6.119287 0.490459
v -0.000000 4.866125 0.639730
v -0.000000 3.612962 0.789000
v -0.000000 2.359800 0.938271
v -0.221836 7.625640 0.221836
v -0.318891 6.281351 0.318890
v -0.415945 4.937061 0.415945
v -0.512999 3.592771 0.512999
v -0.610053 2.248482 0.610053
v -0.341188 7.372449 -0.000000
v -0.490459 6.119287 -0.000000
v -0.639730 4.866125 -0.000000
v -0.789000 3.612962 -0.000000
v -0.938271 2.359800 -0.000000
v -0.221836 7.625640 -0.221836
v -0.318891 6.281351 -0.318890
v -0.415945 4.937061 -0.415945
v -0.512999 3.592771 -0.512999
v -0.610053 2.248482 -0.610053
v 0.000000 7.298292 -0.521777
v 0.339253 7.546090 -0.339253
v 0.521777 7.298292 0.000000
v 0.339253 7.546090 0.339253
v -0.000000 7.298292 0.521777
v -0.339253 7.546090 0.339253
v -0.521777 7.298292 -0.000000
v -0.339253 7.546090 -0.339253
v 0.000000 6.045129 -0.829801
v 0.539526 6.201800 -0.539526
v 0.829801 6.045129 0.000000
v 0.539526 6.201800 0.539526
v -0.000000 6.045129 0.829801
v -0.539527 6.201800 0.539526
v -0.829801 6.045129 -0.000000
v -0.539527 6.201800 -0.539526
v 0.000000 4.791967 -1.028161
v 0.668498 4.857510 -0.668498
v 1.028161 4.791966 0.000000
v 0.668498 4.857510 0.668498
v -0.000000 4.791966 1.028161
v -0.668498 4.857510 0.668498
v -1.028161 4.791966 -0.000000
v -0.668498 4.857510 -0.668498
v 0.000000 3.538805 -1.240426
v 0.806510 3.513220 -0.806510
v 1.240426 3.538805 0.000000
v 0.806510 3.513220 0.806510
v -0.000000 3.538805 1.240426
v -0.806510 3.513220 0.806510
v -1.240426 3.538805 -0.000000
v -0.806510 3.513220 -0.806510
v 0.000000 2.285642 -1.584310
v 1.030099 2.168931 -1.030099
v 1.584310 2.285642 0.000000
v 1.030099 2.168931 1.030099
v -0.000000 2.285642 1.584310
v -1.030100 2.168931 1.030099
v -1.584310 2.285642 -0.000000
v -1.030100 2.168931 -1.030099
v 1.249331 0.824641 -1.249331
v 1.921492 1.032480 0.000000
v 1.249331 0.824641 1.249331
v -0.000000 1.032480 1.921492
v -1.249331 0.824641 1.249331
v -1.921492 1.032480 -0.000000
v -1.249331 0.824641 -1.249331
v 0.000000 1.032480 -1.921492
v 0.207476 0.488579 -0.207476
v -0.000000 0.488579 -0.293416
v -0.000000 -0.187536 -0.364521
v -0.000000 1.351209 -0.364521
v 0.257755 -0.187536 -0.257755
v 0.257755 1.351209 -0.257755
v 0.364521 -0.187536 0.000000
v 0.364521 1.351209 0.000000
v 0.257755 -0.187536 0.257755
v 0.257755 1.351209 0.257755
v -0.000000 -0.187536 0.364521
v -0.000000 1.351209 0.364521
v -0.257755 -0.187536 0.257755
v -0.257755 1.351209 0.257755
v -0.364521 -0.187536 -0.000000
v -0.364521 1.351209 -0.000000
v -0.257755 -0.187536 -0.257755
v -0.257755 1.351209 -0.257755
v 0.293416 0.488579 0.000000
v 0.207476 0.488579 0.207476
v -0.000000 0.488579 0.293416
v -0.207476 0.488579 0.207476
v -0.293416 0.488579 -0.000000
v -0.207476 0.488579 -0.207476
vt 0.959386 0.898953
vt 0.908788 0.807299
vt 0.927084 0.775172
vt 0.635341 0.739200
vt 0.629174 0.844691
vt 0.596871 0.720910
vt 0.578575 0.753037
vt 0.955311 0.278007
vt 0.949143 0.383498
vt 0.916841 0.259717
vt 0.898545 0.291844
vt 0.971672 0.472875
vt 0.965504 0.578365
vt 0.933202 0.454585
vt 0.294384 0.325595
vt 0.298784 0.314991
vt 0.309407 0.319383
vt 0.914906 0.486712
vt 0.965553 0.793462
vt 0.247103 0.130720
vt 0.184620 0.246636
vt 0.068484 0.184271
vt 0.511703 0.574368
vt 0.655385 0.490314
vt 0.655385 0.622819
vt 0.801786 0.357830
vt 0.674470 0.454585
vt 0.655385 0.347489
vt 0.728299 0.067132
vt 0.862666 0.127475
vt 0.730261 0.152040
vt 0.507653 0.860978
vt 0.545475 0.732750
vt 0.578575 0.861259
vt 0.959891 0.008948
vt 0.934042 0.127312
vt 0.901615 0.000000
vt 0.603497 0.720910
vt 0.674471 0.259717
vt 0.869235 0.049063
vt 0.742999 0.000000
vt 0.485035 0.732750
vt 0.451874 0.861259
vt 0.889058 0.581897
vt 0.824251 0.483926
vt 0.856630 0.454585
vt 0.341804 0.574368
vt 0.485486 0.490314
vt 0.485486 0.622819
vt 0.722196 0.098113
vt 0.594881 0.194868
vt 0.575795 0.087772
vt 0.000000 0.780335
vt 0.134366 0.840678
vt 0.001961 0.865243
vt 0.852100 0.763199
vt 0.889922 0.634972
vt 0.923022 0.763481
vt 0.914906 0.463533
vt 0.433598 0.720910
vt 0.594881 0.000000
vt 0.140936 0.762266
vt 0.014700 0.713203
vt 0.829482 0.634972
vt 0.796321 0.763481
vt 0.872697 0.387029
vt 0.807889 0.289058
vt 0.840269 0.259717
vt 0.511703 0.343771
vt 0.655385 0.259717
vt 0.655385 0.392222
vt 0.146401 0.616448
vt 0.019086 0.713203
vt 0.000000 0.606107
vt 0.140936 0.780335
vt 0.275302 0.840679
vt 0.142897 0.865243
vt 0.711164 0.915239
vt 0.748986 0.787012
vt 0.782086 0.915521
vt 0.898545 0.268665
vt 0.603497 0.490314
vt 0.019086 0.518335
vt 0.281872 0.762266
vt 0.155636 0.713203
vt 0.688546 0.787012
vt 0.655385 0.915521
vt 0.268535 0.442304
vt 0.203728 0.344333
vt 0.236108 0.314991
vt 0.341804 0.343771
vt 0.485486 0.259717
vt 0.485486 0.392222
vt 0.298905 0.616448
vt 0.171590 0.713203
vt 0.152505 0.606107
vt 0.655385 0.690264
vt 0.789751 0.750607
vt 0.657347 0.775172
vt 0.837866 0.915239
vt 0.875688 0.787012
vt 0.908788 0.915521
vt 0.294384 0.323940
vt 0.433598 0.490314
vt 0.171590 0.518335
vt 0.796321 0.672195
vt 0.670085 0.623132
vt 0.815248 0.787012
vt 0.782086 0.915521
vt 0.869235 0.029341
vt 0.728299 0.181961
vt 0.756073 0.166842
vt 0.743129 0.186407
vt 0.743129 0.209853
vt 0.758277 0.237575
vt 0.762732 0.222773
vt 0.786222 0.222773
vt 0.813996 0.207654
vt 0.799166 0.203208
vt 0.799166 0.179762
vt 0.784019 0.152040
vt 0.779564 0.166842
vt 0.343454 0.767296
vt 0.363262 0.720910
vt 0.371632 0.748724
vt 0.405400 0.748724
vt 0.451874 0.768495
vt 0.424007 0.776850
vt 0.424007 0.810554
vt 0.404199 0.856940
vt 0.395829 0.829126
vt 0.362061 0.829126
vt 0.315587 0.809355
vt 0.343454 0.801000
vt 0.687283 0.510647
vt 0.714456 0.454585
vt 0.724038 0.486423
vt 0.768082 0.486423
vt 0.824251 0.513545
vt 0.792353 0.523108
vt 0.792353 0.567070
vt 0.765179 0.623132
vt 0.755598 0.591294
vt 0.711553 0.591294
vt 0.655385 0.564172
vt 0.687283 0.554609
vt 0.166657 0.451457
vt 0.132462 0.518335
vt 0.121326 0.481334
vt 0.067004 0.481334
vt 0.000000 0.447203
vt 0.037071 0.436089
vt 0.037071 0.381869
vt 0.071267 0.314991
vt 0.082402 0.351993
vt 0.136724 0.351993
vt 0.203728 0.386124
vt 0.166657 0.397238
vt 0.368640 0.088482
vt 0.406611 0.000000
vt 0.422547 0.052953
vt 0.487146 0.052953
vt 0.575795 0.090852
vt 0.522742 0.106758
vt 0.522742 0.171235
vt 0.484771 0.259717
vt 0.468835 0.206764
vt 0.404236 0.206764
vt 0.315587 0.168865
vt 0.368640 0.152959
vt 0.068484 0.109537
vt 0.110396 0.000000
vt 0.130967 0.068355
vt 0.205843 0.068355
vt 0.315587 0.110188
vt 0.247103 0.205455
vt 0.205191 0.314991
vt 0.109744 0.246636
vt 0.000000 0.204804
vt 0.946592 0.685532
vt 0.923022 0.623234
vt 0.949036 0.623132
vt 0.967712 0.766192
vt 0.961625 0.689268
vt 1.000000 0.264358
vt 0.978881 0.322117
vt 0.981324 0.259717
vt 0.949036 0.761551
vt 0.925653 0.685614
vt 0.957942 0.322199
vt 0.955311 0.259819
vt 0.993914 0.325853
vt 0.981324 0.398136
vt 0.617178 0.912518
vt 0.604589 0.846382
vt 0.623265 0.851023
vt 0.955311 0.398238
vt 0.602145 0.908782
vt 0.578575 0.846484
vt 0.604589 0.984801
vt 0.354190 0.923075
vt 0.341600 0.856940
vt 0.360276 0.861581
vt 0.581206 0.908864
vt 0.638604 0.239197
vt 0.594191 0.257558
vt 0.575795 0.213229
vt 0.339157 0.919340
vt 0.315587 0.857042
vt 0.360276 1.000000
vt 0.967712 0.627773
vt 0.341600 0.995359
vt 0.318218 0.919422
vt 0.683017 0.257558
vt 0.638604 0.239197
vt 0.657000 0.194868
vt 0.955237 0.900644
vt 0.635341 0.843868
vt 0.625025 0.846382
vt 0.955311 0.382674
vt 0.944995 0.385189
vt 0.971672 0.577542
vt 0.309407 0.325595
vt 0.305007 0.329986
vt 0.298784 0.329986
vt 0.294384 0.319383
vt 0.305007 0.314991
vt 0.961356 0.580057
vt 0.965553 0.898129
vt 0.510823 0.509559
vt 0.807889 0.411510
vt 0.869235 0.083549
vt 0.510450 0.720910
vt 0.959891 0.147868
vt 0.485486 0.622160
vt 0.807889 0.314464
vt 0.877631 0.610838
vt 0.340924 0.509559
vt 0.728299 0.151793
vt 0.140936 0.796753
vt 0.854897 0.623132
vt 0.914906 0.602453
vt 0.315587 0.622160
vt 0.728299 0.054747
vt 0.861270 0.415970
vt 0.510823 0.278963
vt 0.152505 0.670128
vt 0.281872 0.796753
vt 0.713961 0.775172
vt 0.898545 0.407585
vt 0.485486 0.391564
vt 0.152505 0.573083
vt 0.257109 0.471244
vt 0.340924 0.278963
vt 0.305009 0.670128
vt 0.796321 0.706681
vt 0.840663 0.775172
vt 0.294384 0.462860
vt 0.315587 0.391564
vt 0.305009 0.573082
vt 0.922616 0.156253
vt 0.748095 0.152040
vt 0.728299 0.217817
vt 0.794201 0.237575
vt 0.813996 0.171798
vt 0.315587 0.752332
vt 0.420393 0.720910
vt 0.451874 0.825518
vt 0.347068 0.856940
vt 0.655385 0.493518
vt 0.785244 0.454585
vt 0.824251 0.584199
vt 0.694391 0.623132
vt 0.203728 0.471365
vt 0.047060 0.518335
vt 0.000000 0.361962
vt 0.156669 0.314991
vt 0.315587 0.059993
vt 0.515689 0.000000
vt 0.575795 0.199724
vt 0.375693 0.259717
vt 0.000000 0.072760
vt 0.242689 0.000000
vt 0.315587 0.242231
vt 0.072898 0.314991
vt 0.923022 0.761653
vt 1.000000 0.402777
vt 0.623265 0.989442
vt 0.578575 0.984904
vt 0.620208 0.257558
vt 0.575795 0.239197
vt 0.594191 0.194868
vt 0.620208 0.194868
vt 0.638604 0.213229
vt 0.315587 0.995461
vt 0.657000 0.257558
vt 0.638604 0.213229
vt 0.683017 0.194868
vt 0.701413 0.213229
vt 0.701413 0.239197
vn 0.2693 0.3043 -0.9137
vn 0.9137 0.3043 -0.2693
vn 0.9137 0.3043 0.2693
vn 0.2693 0.3043 0.9137
vn -0.2693 0.3043 0.9137
vn -0.9137 0.3043 0.2693
vn 0.0000 1.0000 0.0000
vn -0.9137 0.3043 -0.2693
vn -0.2693 0.3043 -0.9137
vn 0.0000 -1.0000 0.0000
vn -0.4688 0.5283 -0.7079
vn -0.4627 0.4462 -0.7660
vn -0.4495 0.3683 -0.8138
vn -0.4193 0.3409 -0.8414
vn -0.3750 0.3202 -0.8699
vn -0.7079 0.5283 -0.4688
vn -0.7660 0.4462 -0.4627
vn -0.8138 0.3683 -0.4495
vn -0.8414 0.3409 -0.4193
vn -0.8699 0.3202 -0.3750
vn -0.7079 0.5283 0.4688
vn -0.7660 0.4462 0.4627
vn -0.8138 0.3683 0.4495
vn -0.8414 0.3409 0.4193
vn -0.8699 0.3202 0.3750
vn -0.4688 0.5283 0.7079
vn -0.4627 0.4462 0.7660
vn -0.4495 0.3683 0.8138
vn -0.4193 0.3409 0.8414
vn -0.3750 0.3202 0.8699
vn 0.4688 0.5283 0.7079
vn 0.4627 0.4462 0.7660
vn 0.4495 0.3683 0.8138
vn 0.4193 0.3409 0.8414
vn 0.3750 0.3202 0.8699
vn 0.7079 0.5283 0.4688
vn 0.7660 0.4462 0.4627
vn 0.8138 0.3683 0.4495
vn 0.8414 0.3409 0.4193
vn 0.8699 0.3202 0.3750
vn 0.7079 0.5283 -0.4688
vn 0.7660 0.4462 -0.4627
vn 0.8138 0.3683 -0.4495
vn 0.8414 0.3409 -0.4193
vn 0.8699 0.3202 -0.3750
vn 0.4688 0.5283 -0.7079
vn 0.4627 0.4462 -0.7660
vn 0.4495 0.3683 -0.8138
vn 0.4193 0.3409 -0.8414
vn 0.3750 0.3202 -0.8699
vn -0.3101 -0.6139 0.7260
vn 0.7260 -0.6139 -0.3101
vn 0.7260 -0.6139 0.3101
vn -0.3101 -0.6139 -0.7260
vn 0.3101 -0.6139 -0.7260
vn -0.7260 -0.6139 0.3101
vn -0.7260 -0.6139 -0.3101
vn 0.3101 -0.6139 0.7260
vn 0.1751 -0.8572 0.4842
vn -0.4842 -0.8572 -0.1751
vn -0.4842 -0.8572 0.1751
vn 0.1751 -0.8572 -0.4842
vn -0.1751 -0.8572 -0.4842
vn 0.4842 -0.8572 0.1751
vn 0.4842 -0.8572 -0.1751
vn -0.1751 -0.8572 0.4842
vn 0.0007 -0.9536 0.3010
vn -0.3010 -0.9536 -0.0007
vn -0.3010 -0.9536 0.0007
vn 0.0007 -0.9536 -0.3010
vn -0.0007 -0.9536 -0.3010
vn 0.3010 -0.9536 0.0007
vn 0.3010 -0.9536 -0.0007
vn -0.0007 -0.9536 0.3010
vn -0.1182 -0.9819 0.1479
vn -0.1479 -0.9819 0.1182
vn -0.1479 -0.9819 -0.1182
vn -0.1182 -0.9819 -0.1479
vn 0.1182 -0.9819 -0.1479
vn 0.1479 -0.9819 -0.1182
vn 0.1479 -0.9819 0.1182
vn 0.1182 -0.9819 0.1479
vn -0.1818 -0.9833 0.0044
vn -0.0044 -0.9833 0.1818
vn -0.0044 -0.9833 -0.1818
vn -0.1818 -0.9833 -0.0044
vn 0.1818 -0.9833 -0.0044
vn 0.0044 -0.9833 -0.1818
vn 0.0044 -0.9833 0.1818
vn 0.1818 -0.9833 0.0044
vn -0.2302 -0.9692 -0.0880
vn 0.0880 -0.9692 0.2302
vn 0.0880 -0.9692 -0.2302
vn -0.2302 -0.9692 0.0880
vn 0.2302 -0.9692 0.0880
vn -0.0880 -0.9692 -0.2302
vn -0.0880 -0.9692 0.2302
vn 0.2302 -0.9692 -0.0880
vn 0.9195 0.0967 -0.3809
vn 0.3816 -0.0759 -0.9212
vn 0.9195 0.0967 0.3809
vn 0.9212 -0.0759 -0.3816
vn 0.3809 0.0967 0.9195
vn 0.9212 -0.0759 0.3816
vn -0.3809 0.0967 0.9195
vn 0.3816 -0.0759 0.9212
vn -0.9195 0.0967 0.3809
vn -0.3816 -0.0759 0.9212
vn -0.9195 0.0967 -0.3809
vn -0.9212 -0.0759 0.3816
vn -0.3809 0.0967 -0.9195
vn -0.9212 -0.0759 -0.3816
vn 0.3809 0.0967 -0.9195
vn -0.3816 -0.0759 -0.9212
vn 0.3620 0.3246 -0.8739
vn 0.8739 0.3246 -0.3620
vn 0.8739 0.3246 0.3620
vn 0.3620 0.3246 0.8739
vn -0.3620 0.3246 0.8739
vn -0.8739 0.3246 0.3620
vn -0.8739 0.3246 -0.3620
vn -0.3620 0.3246 -0.8739
vn -0.0000 -0.8828 -0.4698
vn 0.4698 -0.8828 0.0000
vn -0.0000 -0.8828 0.4698
vn -0.4698 -0.8828 0.0000
vn -0.4758 0.5235 -0.7068
vn -0.4340 0.4631 -0.7728
vn -0.3991 0.3428 -0.8504
vn -0.3289 0.3006 -0.8953
vn -0.2129 0.2578 -0.9425
vn -0.7068 0.5235 -0.4758
vn -0.7728 0.4631 -0.4340
vn -0.8504 0.3428 -0.3991
vn -0.8953 0.3006 -0.3289
vn -0.9425 0.2578 -0.2129
vn -0.7068 0.5235 0.4758
vn -0.7728 0.4631 0.4340
vn -0.8504 0.3428 0.3991
vn -0.8953 0.3006 0.3289
vn -0.9425 0.2578 0.2129
vn -0.4758 0.5235 0.7068
vn -0.4340 0.4631 0.7728
vn -0.3991 0.3428 0.8504
vn -0.3289 0.3006 0.8953
vn -0.2129 0.2578 0.9425
vn 0.4758 0.5235 0.7068
vn 0.4340 0.4631 0.7728
vn 0.3991 0.3428 0.8504
vn 0.3289 0.3006 0.8953
vn 0.2129 0.2578 0.9425
vn 0.7068 0.5235 0.4758
vn 0.7728 0.4631 0.4340
vn 0.8504 0.3428 0.3991
vn 0.8953 0.3006 0.3289
vn 0.9425 0.2578 0.2129
vn 0.7068 0.5235 -0.4758
vn 0.7728 0.4631 -0.4340
vn 0.8504 0.3428 -0.3991
vn 0.8953 0.3006 -0.3289
vn 0.9425 0.2578 -0.2129
vn 0.4758 0.5235 -0.7068
vn 0.4340 0.4631 -0.7728
vn 0.3991 0.3428 -0.8504
vn 0.3289 0.3006 -0.8953
vn 0.2129 0.2578 -0.9425
vn -0.4263 -0.8368 0.3436
vn 0.3436 -0.8368 -0.4263
vn 0.3436 -0.8368 0.4263
vn -0.4263 -0.8368 -0.3436
vn 0.4263 -0.8368 -0.3436
vn -0.3436 -0.8368 0.4263
vn -0.3436 -0.8368 -0.4263
vn 0.4263 -0.8368 0.3436
vn 0.1665 -0.9633 0.2105
vn -0.2105 -0.9633 -0.1665
vn -0.2105 -0.9633 0.1665
vn 0.1665 -0.9633 -0.2105
vn -0.1665 -0.9633 -0.2105
vn 0.2105 -0.9633 0.1665
vn 0.2105 -0.9633 -0.1665
vn -0.1665 -0.9633 0.2105
vn -0.0046 -0.9822 0.1875
vn -0.1875 -0.9822 0.0046
vn -0.1875 -0.9822 -0.0046
vn -0.0046 -0.9822 -0.1875
vn 0.0046 -0.9822 -0.1875
vn 0.1875 -0.9822 -0.0046
vn 0.1875 -0.9822 0.0046
vn 0.0046 -0.9822 0.1875
vn -0.1177 -0.9799 0.1610
vn -0.1610 -0.9799 0.1177
vn -0.1610 -0.9799 -0.1177
vn -0.1177 -0.9799 -0.1610
vn 0.1177 -0.9799 -0.1610
vn 0.1610 -0.9799 -0.1177
vn 0.1610 -0.9799 0.1177
vn 0.1177 -0.9799 0.1610
vn -0.1713 -0.9788 0.1124
vn -0.1124 -0.9788 0.1713
vn -0.1124 -0.9788 -0.1713
vn -0.1713 -0.9788 -0.1124
vn 0.1713 -0.9788 -0.1124
vn 0.1124 -0.9788 -0.1713
vn 0.1124 -0.9788 0.1713
vn 0.1713 -0.9788 0.1124
vn -0.2087 -0.9741 0.0866
vn -0.0866 -0.9741 0.2087
vn -0.0866 -0.9741 -0.2087
vn -0.2087 -0.9741 -0.0866
vn 0.2087 -0.9741 -0.0866
vn 0.0866 -0.9741 -0.2087
vn 0.0866 -0.9741 0.2087
vn 0.2087 -0.9741 0.0866
s off
f 2/1/1 58/2/1 57/3/1
f 58/4/2 6/5/2 59/6/2
f 6/5/3 60/7/3 59/6/3
f 60/8/4 10/9/4 61/10/4
f 10/9/5 62/11/5 61/10/5
f 62/12/6 14/13/6 63/14/6
f 14/15/7 10/16/7 6/17/7
f 14/13/8 64/18/8 63/14/8
f 64/19/9 2/1/9 57/3/9
f 7/20/10 11/21/10 15/22/10
f 56/23/11 104/24/11 103/25/11
f 55/26/12 89/27/12 96/28/12
f 88/29/13 19/30/13 81/31/13
f 80/32/14 20/33/14 73/34/14
f 72/35/15 21/36/15 65/37/15
f 102/38/16 56/23/16 103/25/16
f 95/39/17 55/26/17 96/28/17
f 49/40/18 88/29/18 87/41/18
f 48/42/19 80/32/19 79/43/19
f 47/44/20 72/45/20 71/46/20
f 46/47/21 102/48/21 101/49/21
f 45/50/22 95/51/22 94/52/22
f 86/53/23 49/54/23 87/55/23
f 78/56/24 48/57/24 79/58/24
f 70/59/25 47/44/25 71/46/25
f 100/60/26 46/47/26 101/49/26
f 93/61/27 45/50/27 94/52/27
f 39/62/28 86/53/28 85/63/28
f 38/64/29 78/56/29 77/65/29
f 37/66/30 70/67/30 69/68/30
f 36/69/31 100/70/31 99/71/31
f 35/72/32 93/73/32 92/74/32
f 84/75/33 39/76/33 85/77/33
f 76/78/34 38/79/34 77/80/34
f 68/81/35 37/66/35 69/68/35
f 98/82/36 36/69/36 99/71/36
f 91/83/37 35/72/37 92/74/37
f 29/84/38 84/75/38 83/85/38
f 28/86/39 76/78/39 75/87/39
f 27/88/40 68/89/40 67/90/40
f 26/91/41 98/92/41 97/93/41
f 25/94/42 91/95/42 90/96/42
f 82/97/43 29/98/43 83/99/43
f 74/100/44 28/101/44 75/102/44
f 66/103/45 27/88/45 67/90/45
f 104/104/46 26/91/46 97/93/46
f 89/105/47 25/94/47 90/96/47
f 19/106/48 82/97/48 81/107/48
f 20/108/49 74/100/49 73/109/49
f 21/36/50 66/110/50 65/37/50
f 64/111/51 21/112/51 52/113/51
f 47/114/52 64/111/52 52/113/52
f 62/115/53 47/114/53 42/116/53
f 37/117/54 62/115/54 42/116/54
f 60/118/55 37/117/55 32/119/55
f 27/120/56 60/118/56 32/119/56
f 58/121/57 27/120/57 22/122/57
f 21/112/58 58/121/58 22/122/58
f 20/123/59 66/124/59 23/125/59
f 66/124/60 28/126/60 23/125/60
f 28/126/61 68/127/61 33/128/61
f 68/127/62 38/129/62 33/128/62
f 38/129/63 70/130/63 43/131/63
f 70/130/64 48/132/64 43/131/64
f 48/132/65 72/133/65 53/134/65
f 72/133/66 20/123/66 53/134/66
f 19/135/67 74/136/67 24/137/67
f 74/136/68 29/138/68 24/137/68
f 29/138/69 76/139/69 34/140/69
f 76/139/70 39/141/70 34/140/70
f 39/141/71 78/142/71 44/143/71
f 78/142/72 49/144/72 44/143/72
f 49/144/73 80/145/73 54/146/73
f 80/145/74 19/135/74 54/146/74
f 18/147/75 82/148/75 25/149/75
f 82/148/76 30/150/76 25/149/76
f 30/150/77 84/151/77 35/152/77
f 84/151/78 40/153/78 35/152/78
f 40/153/79 86/154/79 45/155/79
f 86/154/80 50/156/80 45/155/80
f 50/156/81 88/157/81 55/158/81
f 88/157/82 18/147/82 55/158/82
f 17/159/83 90/160/83 26/161/83
f 90/160/84 31/162/84 26/161/84
f 31/162/85 92/163/85 36/164/85
f 92/163/86 41/165/86 36/164/86
f 41/165/87 94/166/87 46/167/87
f 94/166/88 51/168/88 46/167/88
f 51/168/89 96/169/89 56/170/89
f 96/169/90 17/159/90 56/170/90
f 1/171/91 97/172/91 3/173/91
f 97/172/92 5/174/92 3/173/92
f 5/174/93 99/175/93 7/20/93
f 99/175/94 9/176/94 7/20/94
f 9/176/95 101/177/95 11/21/95
f 101/177/96 13/178/96 11/21/96
f 13/178/97 103/179/97 15/22/97
f 103/179/98 1/171/98 15/22/98
f 105/180/99 111/181/99 109/182/99
f 108/183/100 105/180/100 106/184/100
f 111/185/101 124/186/101 113/187/101
f 110/188/102 123/189/102 105/180/102
f 113/187/103 125/190/103 115/191/103
f 123/192/104 114/193/104 124/186/104
f 125/194/105 117/195/105 115/196/105
f 124/186/106 116/197/106 125/190/106
f 126/198/107 119/199/107 117/195/107
f 125/194/108 118/200/108 126/198/108
f 127/201/109 121/202/109 119/203/109
f 118/200/110 127/204/110 126/198/110
f 112/205/7 108/206/7 120/207/7
f 128/208/111 107/209/111 121/202/111
f 120/210/112 128/208/112 127/201/112
f 107/211/113 105/180/113 109/182/113
f 122/212/114 106/213/114 128/208/114
f 121/214/10 109/215/10 113/216/10
f 2/1/115 4/217/115 58/2/115
f 58/4/116 4/218/116 6/5/116
f 6/5/117 8/219/117 60/7/117
f 60/8/118 8/220/118 10/9/118
f 10/9/119 12/221/119 62/11/119
f 62/12/120 12/222/120 14/13/120
f 6/17/7 4/223/7 14/15/7
f 4/223/7 2/224/7 14/15/7
f 2/224/7 16/225/7 14/15/7
f 14/15/7 12/226/7 10/16/7
f 10/16/7 8/227/7 6/17/7
f 14/13/121 16/228/121 64/18/121
f 64/19/122 16/229/122 2/1/122
f 15/22/123 1/171/123 3/173/123
f 3/173/124 5/174/124 7/20/124
f 7/20/125 9/176/125 11/21/125
f 11/21/126 13/178/126 15/22/126
f 15/22/10 3/173/10 7/20/10
f 56/23/127 17/230/127 104/24/127
f 55/26/128 18/231/128 89/27/128
f 88/29/129 54/232/129 19/30/129
f 80/32/130 53/233/130 20/33/130
f 72/35/131 52/234/131 21/36/131
f 102/38/132 51/235/132 56/23/132
f 95/39/133 50/236/133 55/26/133
f 49/40/134 54/232/134 88/29/134
f 48/42/135 53/233/135 80/32/135
f 47/44/136 52/237/136 72/45/136
f 46/47/137 51/238/137 102/48/137
f 45/50/138 50/239/138 95/51/138
f 86/53/139 44/240/139 49/54/139
f 78/56/140 43/241/140 48/57/140
f 70/59/141 42/242/141 47/44/141
f 100/60/142 41/243/142 46/47/142
f 93/61/143 40/244/143 45/50/143
f 39/62/144 44/240/144 86/53/144
f 38/64/145 43/241/145 78/56/145
f 37/66/146 42/245/146 70/67/146
f 36/69/147 41/246/147 100/70/147
f 35/72/148 40/247/148 93/73/148
f 84/75/149 34/248/149 39/76/149
f 76/78/150 33/249/150 38/79/150
f 68/81/151 32/250/151 37/66/151
f 98/82/152 31/251/152 36/69/152
f 91/83/153 30/252/153 35/72/153
f 29/84/154 34/248/154 84/75/154
f 28/86/155 33/249/155 76/78/155
f 27/88/156 32/253/156 68/89/156
f 26/91/157 31/254/157 98/92/157
f 25/94/158 30/255/158 91/95/158
f 82/97/159 24/256/159 29/98/159
f 74/100/160 23/257/160 28/101/160
f 66/103/161 22/258/161 27/88/161
f 104/104/162 17/259/162 26/91/162
f 89/105/163 18/260/163 25/94/163
f 19/106/164 24/256/164 82/97/164
f 20/108/165 23/257/165 74/100/165
f 21/36/166 22/261/166 66/110/166
f 64/111/167 57/262/167 21/112/167
f 47/114/168 63/263/168 64/111/168
f 62/115/169 63/263/169 47/114/169
f 37/117/170 61/264/170 62/115/170
f 60/118/171 61/264/171 37/117/171
f 27/120/172 59/265/172 60/118/172
f 58/121/173 59/265/173 27/120/173
f 21/112/174 57/262/174 58/121/174
f 20/123/175 65/266/175 66/124/175
f 66/124/176 67/267/176 28/126/176
f 28/126/177 67/267/177 68/127/177
f 68/127/178 69/268/178 38/129/178
f 38/129/179 69/268/179 70/130/179
f 70/130/180 71/269/180 48/132/180
f 48/132/181 71/269/181 72/133/181
f 72/133/182 65/266/182 20/123/182
f 19/135/183 73/270/183 74/136/183
f 74/136/184 75/271/184 29/138/184
f 29/138/185 75/271/185 76/139/185
f 76/139/186 77/272/186 39/141/186
f 39/141/187 77/272/187 78/142/187
f 78/142/188 79/273/188 49/144/188
f 49/144/189 79/273/189 80/145/189
f 80/145/190 73/270/190 19/135/190
f 18/147/191 81/274/191 82/148/191
f 82/148/192 83/275/192 30/150/192
f 30/150/193 83/275/193 84/151/193
f 84/151/194 85/276/194 40/153/194
f 40/153/195 85/276/195 86/154/195
f 86/154/196 87/277/196 50/156/196
f 50/156/197 87/277/197 88/157/197
f 88/157/198 81/274/198 18/147/198
f 17/159/199 89/278/199 90/160/199
f 90/160/200 91/279/200 31/162/200
f 31/162/201 91/279/201 92/163/201
f 92/163/202 93/280/202 41/165/202
f 41/165/203 93/280/203 94/166/203
f 94/166/204 95/281/204 51/168/204
f 51/168/205 95/281/205 96/169/205
f 96/169/206 89/278/206 17/159/206
f 1/171/207 104/282/207 97/172/207
f 97/172/208 98/283/208 5/174/208
f 5/174/209 98/283/209 99/175/209
f 99/175/210 100/284/210 9/176/210
f 9/176/211 100/284/211 101/177/211
f 101/177/212 102/285/212 13/178/212
f 13/178/213 102/285/213 103/179/213
f 103/179/214 104/282/214 1/171/214
f 105/180/99 123/189/99 111/181/99
f 108/183/100 110/188/100 105/180/100
f 111/185/101 123/192/101 124/186/101
f 110/188/102 112/286/102 123/189/102
f 113/187/103 124/186/103 125/190/103
f 123/192/104 112/287/104 114/193/104
f 125/194/105 126/198/105 117/195/105
f 124/186/106 114/193/106 116/197/106
f 126/198/107 127/204/107 119/199/107
f 125/194/108 116/288/108 118/200/108
f 127/201/109 128/208/109 121/202/109
f 118/200/110 120/289/110 127/204/110
f 112/205/7 110/290/7 108/206/7
f 108/206/7 122/291/7 120/207/7
f 120/207/7 118/292/7 112/205/7
f 118/292/7 116/293/7 112/205/7
f 116/293/7 114/294/7 112/205/7
f 128/208/111 106/213/111 107/209/111
f 120/210/112 122/212/112 128/208/112
f 107/211/113 106/184/113 105/180/113
f 122/212/114 108/295/114 106/213/114
f 121/214/10 107/296/10 109/215/10
f 109/215/10 111/297/10 113/216/10
f 113/216/10 115/298/10 117/299/10
f 117/299/10 119/300/10 113/216/10
f 119/300/10 121/214/10 113/216/10
